<svg width="40" height="40" viewBox="0 0 40 40" fill="none" xmlns="http://www.w3.org/2000/svg">
<g clip-path="url(#clip0_2461_19179)">
<path d="M25.8327 5.83301V8.95801C21.516 7.73301 19.9993 5.83301 19.9993 5.83301C19.9993 5.83301 18.4827 7.73301 14.166 8.95801V1.87467L17.666 4.16634L19.9993 0.833008L22.3327 4.16634L25.8327 1.87467V5.83301Z" fill="#3971FF"/>
<path d="M22.5824 37.642L19.9991 39.167L17.4741 37.5337L17.4991 37.5003L19.0408 35.1837L19.9991 35.8337L20.9824 35.2253L22.4991 37.5003L22.5824 37.642ZM23.0158 11.1503L19.9991 14.167L16.9824 11.1503C18.1322 10.7402 19.1668 10.06 19.9991 9.16699C20.8314 10.06 21.8659 10.7402 23.0158 11.1503Z" fill="#3971FF"/>
<path d="M17.9258 12.0929L19.9991 14.1662L22.0724 12.0929C21.3382 11.7617 20.6429 11.3503 19.9991 10.8662C19.3554 11.3503 18.66 11.7617 17.9258 12.0929Z" fill="#3971FF"/>
<path d="M24.5776 6.26557C24.846 5.99699 24.7606 5.4765 24.3869 5.10303C24.0132 4.72956 23.4926 4.64453 23.2242 4.91311C22.9559 5.18169 23.0413 5.70217 23.415 6.07564C23.7887 6.44911 24.3093 6.53415 24.5776 6.26557Z" fill="#3971FF"/>
<path d="M16.5274 5.51188C16.6618 5.37743 16.6192 5.11706 16.4323 4.93032C16.2455 4.74359 15.9851 4.7012 15.8507 4.83565C15.7163 4.97011 15.7589 5.23048 15.9458 5.41722C16.1326 5.60395 16.393 5.64634 16.5274 5.51188Z" fill="#3971FF"/>
<path d="M40 2.93984V0.833175C40 0.685678 39.9608 0.540831 39.8865 0.413427C39.8122 0.286023 39.7054 0.180629 39.577 0.108007C39.4486 0.0353853 39.3033 -0.00186121 39.1558 7.15676e-05C39.0083 0.00200435 38.864 0.0430472 38.7375 0.119008C38.6609 0.166508 31.4392 4.46401 26.6667 4.95067V1.87484C26.6668 1.72454 26.6262 1.57701 26.5493 1.44789C26.4723 1.31877 26.3619 1.21285 26.2297 1.14137C26.0975 1.06988 25.9484 1.03548 25.7982 1.04181C25.6481 1.04815 25.5024 1.09498 25.3767 1.17734L22.5525 3.02651L20.6825 0.355675C20.6018 0.251519 20.4984 0.167212 20.3801 0.109211C20.2618 0.0512104 20.1318 0.0210553 20 0.0210553C19.8683 0.0210553 19.7383 0.0512104 19.62 0.109211C19.5017 0.167212 19.3982 0.251519 19.3175 0.355675L17.4475 3.02651L14.6234 1.17734C14.4976 1.09498 14.352 1.04815 14.2018 1.04181C14.0516 1.03548 13.9026 1.06988 13.7703 1.14137C13.6381 1.21285 13.5277 1.31877 13.4508 1.44789C13.3739 1.57701 13.3333 1.72454 13.3334 1.87484V4.95067C8.56086 4.46401 1.33919 0.166508 1.26253 0.119008C1.13609 0.0430472 0.991763 0.00200435 0.844279 7.15676e-05C0.696794 -0.00186121 0.551439 0.0353853 0.423059 0.108007C0.294678 0.180629 0.187873 0.286023 0.113551 0.413427C0.039229 0.540831 5.34756e-05 0.685678 2.54265e-05 0.833175V2.93984C-0.00252917 3.66906 0.187454 4.38602 0.550775 5.01829C0.914096 5.65055 1.43788 6.1757 2.06919 6.54067L1.46503 6.69151C1.35368 6.71938 1.24929 6.76994 1.1584 6.84004C1.06752 6.91014 0.992092 6.99826 0.936855 7.09888C0.881619 7.19949 0.847763 7.31043 0.83741 7.42474C0.827058 7.53906 0.840431 7.65427 0.876692 7.76318C0.909192 7.86151 1.62669 9.89567 5.00003 10.5965V20.9298C4.99428 23.8526 5.72327 26.73 7.12 29.2974C8.51673 31.8649 10.5364 34.0401 12.9934 35.6232L19.5475 39.864C19.6773 39.9479 19.8279 39.994 19.9824 39.9973C20.1369 40.0005 20.2893 39.9607 20.4225 39.8823L26.3725 36.3823C28.9945 34.8322 31.1685 32.627 32.681 29.9831C34.1936 27.3392 34.9927 24.3475 35 21.3015V14.9998H33.3334V21.3015C33.3271 24.0576 32.6043 26.7648 31.236 29.1573C29.8677 31.5497 27.9008 33.5453 25.5284 34.9482L22.85 36.5232L22.1575 35.484L24.9859 33.7423C25.6781 33.3166 26.3307 32.8297 26.9359 32.2873L25.8242 31.0457C25.2935 31.5221 24.7209 31.9497 24.1134 32.3232L20.0209 34.8415L15.455 31.7498C13.7566 30.579 12.3712 29.0096 11.4202 27.179C10.4692 25.3485 9.98154 23.3126 10 21.2498V19.9998H8.33336V21.2498C8.31381 23.5859 8.86772 25.891 9.9465 27.9632C11.0253 30.0353 12.596 31.8111 14.5209 33.1348L17.8909 35.4157L17.24 36.3923L13.8984 34.2298C11.6746 32.7975 9.84683 30.829 8.58313 28.5053C7.31942 26.1816 6.6604 23.5774 6.66669 20.9323V10.8248C14.7325 10.6648 18.5925 8.19484 20 6.99151C21.4075 8.19151 25.2675 10.6582 33.3334 10.8248V13.3332H35V10.5973C38.3717 9.89567 39.0909 7.86151 39.1234 7.76401C39.1596 7.65511 39.173 7.53989 39.1626 7.42558C39.1523 7.31126 39.1184 7.20032 39.0632 7.09971C39.008 6.99909 38.9325 6.91098 38.8416 6.84088C38.7508 6.77078 38.6464 6.72021 38.535 6.69234L37.9309 6.54151C38.5623 6.17647 39.0862 5.65118 39.4495 5.01876C39.8128 4.38634 40.0027 3.6692 40 2.93984ZM19.2709 36.3457L19.5325 36.5232C19.6653 36.6132 19.8213 36.663 19.9817 36.6665C20.142 36.67 20.3 36.6272 20.4367 36.5432L20.7375 36.3582L21.4117 37.3698L20.0209 38.1873L18.6392 37.2932L19.2709 36.3457ZM13.3334 8.31484C11.1665 8.84266 8.94672 9.12224 6.71669 9.14817C5.41878 9.1539 4.15178 8.75226 3.09419 7.99984L5.20169 7.47484C5.37738 7.43092 5.53398 7.33096 5.64779 7.19009C5.7616 7.04923 5.82642 6.87512 5.83245 6.69412C5.83848 6.51313 5.78538 6.33509 5.68119 6.18697C5.57701 6.03884 5.4274 5.92869 5.25503 5.87317L3.00003 5.14901C2.59701 4.93792 2.2596 4.62034 2.02451 4.23083C1.78942 3.84132 1.66566 3.3948 1.66669 2.93984V2.26734C4.06336 3.58734 9.35919 6.27234 13.3334 6.62567V8.31484ZM25 7.80901C23.3715 7.33494 21.8801 6.47769 20.6509 5.30901C20.5727 5.21299 20.4743 5.13546 20.3626 5.08201C20.2509 5.02855 20.1288 5.00049 20.005 4.99984H20C19.877 5.00041 19.7556 5.02803 19.6444 5.08073C19.5332 5.13344 19.435 5.20995 19.3567 5.30484C18.1258 6.47395 16.6327 7.33121 15.0025 7.80484V3.41651L17.2125 4.86401C17.3938 4.98281 17.6143 5.02628 17.8271 4.98521C18.04 4.94413 18.2284 4.82174 18.3525 4.64401L20 2.28651L21.65 4.64401C21.7741 4.82174 21.9626 4.94413 22.1754 4.98521C22.3882 5.02628 22.6087 4.98281 22.79 4.86401L25 3.41651V7.80901ZM38.3334 2.93984C38.3348 3.39437 38.2117 3.8406 37.9773 4.23006C37.743 4.61953 37.4064 4.93735 37.0042 5.14901L34.745 5.87317C34.5727 5.92869 34.423 6.03884 34.3189 6.18697C34.2147 6.33509 34.1616 6.51313 34.1676 6.69412C34.1736 6.87512 34.2385 7.04923 34.3523 7.19009C34.4661 7.33096 34.6227 7.43092 34.7984 7.47484L36.9059 8.00234C35.8473 8.75271 34.58 9.15202 33.2825 9.14401C31.0525 9.11813 28.8327 8.83855 26.6659 8.31067V6.62567C30.64 6.27234 35.9359 3.58734 38.3325 2.26734L38.3334 2.93984Z" fill="#3971FF"/>
<path d="M27.2848 29.4855L28.5965 30.5138C30.5906 27.9481 31.6713 24.7901 31.6673 21.5405V12.4997C31.6673 12.2787 31.5795 12.0667 31.4232 11.9104C31.267 11.7541 31.055 11.6663 30.834 11.6663C23.1532 11.6663 20.6807 8.68384 20.6623 8.66051C20.5852 8.55954 20.486 8.47753 20.3723 8.42077C20.2587 8.36401 20.1335 8.33399 20.0065 8.33301C19.8788 8.33357 19.7529 8.36232 19.6376 8.41721C19.5224 8.47209 19.4207 8.55176 19.3398 8.65051C19.3207 8.68384 16.8482 11.6663 9.16732 11.6663C8.9463 11.6663 8.73434 11.7541 8.57806 11.9104C8.42178 12.0667 8.33398 12.2787 8.33398 12.4997V14.9997H10.0007V13.3213C12.3125 13.3024 14.6051 12.8994 16.7848 12.1288L19.4115 14.7555C19.5678 14.9117 19.7797 14.9995 20.0007 14.9995C20.2216 14.9995 20.4335 14.9117 20.5898 14.7555L23.2165 12.1288C25.3962 12.8994 27.6888 13.3024 30.0007 13.3213V21.5405C30.0054 24.4174 29.0496 27.2135 27.2848 29.4855ZM20.0007 12.988L18.4073 11.3947C18.9733 11.0961 19.5072 10.7403 20.0007 10.333C20.494 10.7415 21.0279 11.0984 21.594 11.398L20.0007 12.988ZM8.33398 16.6663H10.0007V18.333H8.33398V16.6663Z" fill="#3971FF"/>
</g>
<defs>
<clipPath id="clip0_2461_19179">
<rect width="40" height="40" fill="white"/>
</clipPath>
</defs>
</svg>
