<svg width="64" height="64" viewBox="0 0 64 64" fill="none" xmlns="http://www.w3.org/2000/svg">
<path d="M47.5447 40.9578C45.6279 40.9011 43.83 40.0457 42.5262 38.5472C41.8782 38.0534 40.978 38.1724 40.5283 38.7392C40.15 39.2159 40.1462 39.9387 40.5485 40.4753C42.5995 42.7461 45.5346 43.9825 48.7043 43.6716C49.4262 43.3567 49.8312 42.6473 49.7241 42.0374C49.5853 41.2466 48.5832 40.6079 47.5447 40.9578Z" fill="#F6334C"/>
<path d="M31.9574 13.9597C31.026 15.6359 30.89 17.6328 31.5358 19.5111C31.9554 20.5217 31.4672 21.5326 30.8296 21.7506C30.1581 21.9803 29.085 21.4114 28.8771 20.2598C27.936 17.3482 28.3329 14.1881 30.187 11.5985C31.1473 10.7409 32.1538 10.245 32.5818 10.5416C33.0654 10.8769 32.8896 12.2819 31.9574 13.9597Z" fill="#D22239"/>
<path d="M26.655 53.1498C27.113 52.7895 27.6652 52.541 28.2733 52.4514C30.8407 52.0734 31.404 54.2485 33.0047 54.7816C33.9395 55.0929 34.252 56.2617 33.5999 57.0004C32.467 58.2839 30.867 59.0875 29.0767 59.3277C27.0197 59.5022 25.2648 57.8469 25.3215 55.7832L26.655 53.1498Z" fill="#F6334C"/>
<path d="M24.1089 50.6456C25.6273 50.7625 26.7681 52.0841 26.6595 53.6051C26.5506 55.1314 25.2251 56.2804 23.6988 56.1715C22.1099 56.0582 20.9377 54.6292 21.15 53.0387L24.1089 50.6456Z" fill="#FD5C6F"/>
<path d="M20.7586 46.1273C21.9723 46.1104 23.1591 46.7332 23.8092 47.8591C24.7655 49.5155 24.198 51.6336 22.5416 52.5899C19.8261 54.1577 16.6037 51.5814 17.491 48.6017L20.7586 46.1273Z" fill="#F6334C"/>
<path d="M37.387 20.6843C38.5906 19.8716 39.9787 19.4741 41.3645 19.5221C42.602 19.5649 43.1881 21.0912 42.2699 21.922C41.7023 22.4354 41.2379 23.0705 40.8814 23.7825C39.6927 24.5758 38.1713 24.3117 37.4561 23.3527C36.9135 22.6249 36.8859 21.565 37.387 20.6843Z" fill="#485C70"/>
<path d="M44.4359 32.8929C45.7415 32.2568 46.7798 31.2535 47.4312 30.0294C48.0128 28.9363 46.984 27.6655 45.8055 28.0453C45.077 28.2801 44.2948 28.3648 43.5 28.3176C42.3276 28.5851 41.4902 29.4924 41.4334 30.4309C41.3576 31.6852 42.6729 33.0457 44.4359 32.8929Z" fill="#5B778F"/>
<path d="M39.341 41.2893C38.8128 41.2448 31.4343 40.49 27.8509 33.7774C27.0575 32.2927 26.6112 30.8169 26.3948 29.4228C27.6155 25.4687 31.2661 22.791 35.272 22.8455C38.9256 22.8952 42.2473 25.2089 43.6419 28.6938C45.3655 33.44 44.4368 38.2304 39.341 41.2893Z" fill="#FF8A98"/>
<path d="M30.5829 26.1206C29.1315 26.9372 27.7383 28.0011 26.3948 29.4234C25.7077 25.0008 27.3342 21.3934 27.5679 20.8984C33.7704 17.4565 39.1411 20.3892 42.3548 25.9555C42.8759 26.8582 43.3089 27.7756 43.6419 28.6944C40.3929 24.8278 35.7799 23.2369 30.5829 26.1206ZM20.4097 43.3578C21.4065 45.0213 20.8442 47.1724 19.1713 48.1383C17.5149 49.0946 15.3968 48.5271 14.4405 46.8707C13.4747 45.1979 14.063 43.0537 15.7582 42.1115L20.4097 43.3578Z" fill="#FD5C6F"/>
<path d="M22.3165 41.9149C20.5526 44.3302 16.8652 44.1436 15.3617 41.5394C13.854 38.928 15.5507 35.6474 18.5139 35.3287L22.3165 41.9149ZM54.4353 36.8097C54.3022 35.6487 54.3697 34.4865 55.1947 33.4051C55.8455 32.552 55.174 31.2211 54.0919 31.2264C50.4226 31.2439 48.1704 34.51 48.1163 38.6497L54.4353 36.8097ZM29.6238 43.8089C29.6719 44.8027 29.623 45.7988 29.4778 46.7831C29.3597 47.5849 28.5688 48.1059 27.7821 47.9111C27.0946 47.741 26.6451 47.0777 26.748 46.377C26.885 45.4463 26.917 44.5031 26.8433 43.5652C27.5679 42.5528 29.0835 42.6873 29.6238 43.8089Z" fill="#F6334C"/>
<path d="M20.5273 28.054C19.6908 27.5154 18.8037 27.0597 17.8786 26.6933C17.1251 26.3947 16.2785 26.8191 16.0538 27.5978C15.8575 28.2782 16.2071 28.9992 16.8654 29.2605C17.7399 29.6071 18.5727 30.0511 19.3481 30.5838C19.4496 30.6064 20.1409 30.7496 20.6032 30.3416C21.1275 29.8787 21.1867 28.8565 20.5273 28.054ZM22.632 25.0361C21.8762 23.6612 21.3888 22.1617 21.1889 20.5939C21.0847 19.7773 21.7252 19.0554 22.5484 19.0487C23.2504 19.043 23.8387 19.5661 23.9291 20.2623C24.0486 21.1894 24.3006 22.0945 24.6774 22.95C25.4483 23.5945 25.4286 24.7341 24.809 25.2817C24.2398 25.7848 23.2257 25.7342 22.632 25.0361Z" fill="#D22239"/>
<path d="M33.2896 43.4953C34.1024 44.8373 35.1574 46.0092 36.4151 46.9662C37.0703 47.4647 38.0157 47.271 38.4331 46.5615C38.789 45.9564 38.6301 45.1854 38.0724 44.7589C37.3293 44.1919 36.6714 43.521 36.1189 42.767C35.8355 41.7413 34.7553 41.2821 34.0217 41.6181C33.4232 41.8923 33.0592 42.6938 33.2896 43.4953ZM38.9946 10.0658C39.9334 10.7616 40.9737 11.2843 42.3227 11.1105C43.3869 10.9734 44.2037 12.2204 43.6582 13.1549C41.8083 16.3238 37.8537 16.6413 34.2416 14.6183L38.9946 10.0658Z" fill="#F6334C"/>
<path d="M31.1173 43.764C27.548 44.0084 24.016 43.2741 21.6015 41.4177C21.4372 41.1363 19.5497 37.775 21.2451 34.3015C22.4703 31.7911 24.7711 30.8524 25.33 30.6419C28.5265 34.4535 30.4757 39.0267 31.1173 43.764Z" fill="#FF8A98"/>
<path d="M21.6014 41.4178C17.0093 37.8869 18.0544 31.6274 21.3127 26.7824C22.7867 27.9207 24.1335 29.2148 25.3299 30.642C22.9618 33.5942 21.1049 37.6687 21.6014 41.4178Z" fill="#FD5C6F"/>
<path d="M31.1173 43.7648C27.9774 40.9385 25.3219 37.0937 23.541 33.2806C22.7874 31.1019 23.4723 28.7881 25.1198 27.6243C26.825 26.4199 28.8289 26.9646 29.1157 27.0475C31.0928 32.3157 34.8318 37.9394 39.3409 41.2901C36.8213 42.7823 33.9203 43.5728 31.1173 43.7648Z" fill="#FD5C6F"/>
<path d="M23.5409 33.2804C22.4959 31.0529 21.7511 28.8465 21.3127 26.7828C22.8826 24.4481 25.0185 22.3326 27.5678 20.8983C27.7896 22.8097 28.3076 24.8974 29.1156 27.0473C26.8247 28.6715 24.8709 30.9202 23.5409 33.2804Z" fill="#F6334C"/>
<path d="M51.4815 45.0087C50.4719 44.9691 49.5665 44.5252 48.8795 43.8522C47.6942 41.7907 47.8106 40.6747 48.1532 40.0335C48.9394 38.5615 50.9581 39.5121 54.8069 37.8552C57.1366 36.8523 58.4725 35.6106 59.9409 36.2069C60.5267 36.4447 60.9068 36.8831 61.1338 37.2095C61.2144 42.0737 56.8772 45.2214 51.4815 45.0087Z" fill="#FF8A98"/>
<path d="M59.7336 37.5645C56.3985 41.0313 51.4393 36.1286 49.1058 41.183C48.7054 42.0515 48.6589 42.9865 48.8794 43.8524C47.6626 42.661 47.1267 40.7503 47.8952 39.0861C50.2287 34.0317 55.1879 38.9344 58.5225 35.4668C59.4024 34.5531 60.9771 35.2309 61.1006 36.5819C61.1199 36.7938 61.1312 37.0029 61.1338 37.2097C60.6553 37.0653 60.1258 37.1564 59.7336 37.5645ZM33.7533 14.5918C32.8371 14.5079 32.0321 14.109 31.4031 13.5236C30.5021 9.99219 32.186 6.38353 35.235 4.95289C37.7975 3.7506 40.9494 4.2623 43.1829 6.25945C43.0467 6.70243 42.7136 7.07117 42.2014 7.19786C37.5314 8.35293 39.2973 15.0981 33.7533 14.5918Z" fill="#FD5C6F"/>
<path d="M31.4032 13.5235C30.0705 12.2842 29.5317 10.2085 30.4173 8.52448C33.0371 3.54274 38.2442 1.38299 42.5249 4.40749C43.1722 4.86444 43.3735 5.63625 43.1829 6.2593C39.0376 3.87579 34.2153 6.06189 31.7273 10.7934C31.2733 11.6557 31.1936 12.6216 31.4032 13.5235Z" fill="#F6334C"/>
</svg>
