<svg width="20" height="20" viewBox="0 0 20 20" fill="none" xmlns="http://www.w3.org/2000/svg">
<mask id="mask0_3383_8588" style="mask-type:luminance" maskUnits="userSpaceOnUse" x="0" y="0" width="20" height="20">
<path d="M0 0H20V20H0V0Z" fill="white"/>
</mask>
<g mask="url(#mask0_3383_8588)">
<path d="M17.687 2.31297C17.8334 1.74887 17.6705 1.12106 17.1973 0.699181C16.5964 0.163282 15.6763 0.156837 15.0683 0.684649C14.5159 1.16426 14.3708 1.92527 14.6442 2.55125C14.8113 2.93391 14.7348 3.37891 14.4395 3.67418L12.3584 5.75523C12.3891 5.78093 12.4187 5.80798 12.4471 5.83629L14.1637 7.55289C14.192 7.58125 14.2191 7.61085 14.2448 7.6416L16.3259 5.56051C16.6212 5.26516 17.0662 5.18883 17.449 5.3559C18.0745 5.62898 18.8349 5.48438 19.3146 4.9325C19.843 4.32473 19.837 3.40434 19.3012 2.80309C18.8793 2.32965 18.2514 2.1666 17.687 2.31297Z" fill="#B5B5B5"/>
<path d="M10.69 5.7166C8.83908 7.12492 7.06845 7.1702 5.31466 7.66332C5.50184 7.73022 5.67186 7.83779 5.81248 7.97828L7.65587 9.82172C7.90361 10.0695 8.02732 10.3941 8.02732 10.7186C8.02732 11.0527 7.89634 11.3861 7.6347 11.6362C7.13353 12.1154 6.33431 12.0882 5.844 11.5979L4.82197 10.5759C4.73865 10.4923 4.63963 10.426 4.53061 10.3809C4.42159 10.3357 4.30471 10.3125 4.18669 10.3126C3.95283 10.3129 3.71959 10.4032 3.54302 10.5844C3.19763 10.9388 3.21568 11.5108 3.56564 11.8607L3.81751 12.1126C4.06521 12.3604 4.18896 12.6851 4.18896 13.0095C4.18865 13.3343 4.06494 13.6589 3.81724 13.9067C3.32209 14.4018 2.51888 14.4021 2.02345 13.9067L0.827827 12.7111C0.679827 12.563 0.568899 12.382 0.504077 12.1829C-0.0407666 14.1766 0.469585 16.3983 2.03564 17.9643C4.35923 20.2879 8.12654 20.2879 10.4502 17.9643C13.3045 15.11 11.9963 12.3159 14.2834 9.30992C14.6888 8.77715 14.637 8.02629 14.1636 7.55289L12.447 5.83629C11.9736 5.36289 11.2228 5.31121 10.69 5.7166Z" fill="#FF9900"/>
<path d="M4.39483 7.67272C3.54717 8.00085 2.69182 8.49726 1.83741 9.35163C1.28334 9.90573 0.85557 10.539 0.554359 11.2154C0.328187 11.7233 0.434593 12.3178 0.827757 12.711L2.02342 13.9066C2.51885 14.4021 3.32201 14.4017 3.81717 13.9066C4.06491 13.6589 4.18862 13.3342 4.18889 13.0094C4.18889 12.685 4.06518 12.3603 3.81744 12.1125L3.56557 11.8607C3.21561 11.5107 3.19756 10.9387 3.54295 10.5843C3.71951 10.4031 3.9528 10.3128 4.18662 10.3125C4.41651 10.3125 4.64639 10.4003 4.82194 10.5758L5.84393 11.5978C6.33424 12.0882 7.13346 12.1153 7.63463 11.6361C7.89627 11.386 8.02725 11.0525 8.02725 10.7185C8.02725 10.3941 7.90354 10.0694 7.6558 9.82163L5.81241 7.97819C5.44092 7.60675 4.88475 7.48312 4.39483 7.67272Z" fill="#88F8D8"/>
<path d="M8.94623 12.8741C9.11955 13.0474 9.11955 13.3285 8.94623 13.5018C8.77291 13.6752 8.49182 13.6752 8.3185 13.5018C8.14514 13.3285 8.14514 13.0474 8.3185 12.8741C8.49182 12.7008 8.77291 12.7008 8.94623 12.8741Z" fill="#F95116"/>
<path d="M5.35988 16.4603C5.5332 16.6337 5.81425 16.6337 5.98761 16.4603C6.16097 16.287 6.16097 16.0059 5.98761 15.8326C5.81425 15.6592 5.5332 15.6592 5.35988 15.8326C5.18652 16.0059 5.18652 16.287 5.35988 16.4603Z" fill="#F95116"/>
</g>
</svg>
