<svg width="20" height="20" viewBox="0 0 20 20" fill="none" xmlns="http://www.w3.org/2000/svg">
<path d="M4.0901 14.4901L3.95606 14.782L4.16577 15.0252C5.57706 16.6623 7.66762 17.6999 9.99997 17.6999C12.3323 17.6999 14.4228 16.6623 15.8341 15.0253L16.0438 14.7821L15.9098 14.4902C14.883 12.2543 12.6235 10.6999 9.99991 10.6999C7.37634 10.6999 5.11686 12.2542 4.0901 14.4901ZM19.1 9.9999C19.1 15.0257 15.0258 19.0999 9.99999 19.0999C4.9742 19.0999 0.899994 15.0257 0.899994 9.9999C0.899994 4.97411 4.9742 0.899902 9.99999 0.899902C15.0258 0.899902 19.1 4.97411 19.1 9.9999ZM9.99999 9.2999C11.6016 9.2999 12.9 8.00153 12.9 6.3999C12.9 4.79828 11.6016 3.4999 9.99999 3.4999C8.39837 3.4999 7.09999 4.79828 7.09999 6.3999C7.09999 8.00153 8.39837 9.2999 9.99999 9.2999Z" stroke="#FB8B8A"/>
</svg>
